<?xml version="1.0" ?><!DOCTYPE svg  PUBLIC '-//W3C//DTD SVG 1.1//EN'  'http://www.w3.org/Graphics/SVG/1.1/DTD/svg11.dtd'><svg enable-background="new 0 0 512 512" height="512px" id="Layer_1" version="1.1" viewBox="0 0 512 512" width="512px" xml:space="preserve" xmlns="http://www.w3.org/2000/svg" xmlns:xlink="http://www.w3.org/1999/xlink"><g><path d="M116.13,425.658c-4.971,0-9,4.029-9,9v22c0,4.971,4.029,9,9,9h44.537h44.666h101.334h44.666h44.537c4.971,0,9-4.029,9-9   v-76.861c0-14.368-5.083-27.568-13.538-37.908v-75.563c0-4.971-4.029-9-9-9h-41.508c5.332-10.412,8.36-22.189,8.36-34.669V191.36   c33.599-39.771,42.343-78.959,23.912-107.884c-10.658-16.726-29.233-28.194-53.719-33.165c-24.246-4.924-52.729-3.01-82.359,5.535   c-60.942,17.571-80.361,4.259-82.879-2.611c-0.643-4.391-4.347-7.281-8.811-7.293c-0.008,0-0.015,0-0.022,0   c-4.51,0-8.258,3.737-8.854,8.21c-5.978,44.841,18.005,76.354,26.36,85.798v82.706c0,12.479,3.028,24.257,8.36,34.669h-41.508   c-4.971,0-9,4.029-9,9v75.565c-8.454,10.34-13.536,23.54-13.536,37.906v12.361c0,4.971,4.029,9,9,9s9-4.029,9-9v-12.361   c0-17.696,11.011-32.859,26.537-39.026v106.888H125.13v-13C125.13,429.688,121.101,425.658,116.13,425.658z M228.206,337.814   h55.587h13.874v109.844h-83.334V337.814H228.206z M180.813,222.656v-77.254h150.371v77.254c0,30.279-23.188,55.239-52.737,58.072   h-44.896C204.001,277.896,180.813,252.936,180.813,222.656z M237.206,298.954c0.652,0.017,1.3,0.05,1.956,0.05h33.675   c0.656,0,1.304-0.033,1.956-0.05v20.86h-37.587V298.954z M315.667,447.658V337.814h26.666v109.844H315.667z M386.87,447.658   h-26.537V340.771c15.526,6.167,26.537,21.33,26.537,39.026V447.658z M373.332,275.325v51.676   c-5.552-3.003-11.632-5.141-18.056-6.268c-1.192-0.583-2.527-0.919-3.943-0.919h-6.445h-38.221h-13.874v-23.474   c13.632-3.696,25.753-11.082,35.236-21.016H373.332z M242.006,73.142c52.123-15.032,98.707-6.99,115.91,20.008   c11.292,17.72,7.99,41.792-8.731,68.063v-24.81c0-4.971-4.029-9-9-9H175.759c-5.554-6.451-19.335-24.845-21.844-50.999   C172.581,85.711,202.188,84.621,242.006,73.142z M183.969,275.325c9.484,9.934,21.605,17.319,35.237,21.016v23.474h-13.873h-38.221   h-6.445c-1.416,0-2.751,0.336-3.943,0.919c-6.425,1.127-12.506,3.266-18.058,6.27v-51.678H183.969z M169.667,337.814h26.666   v109.844h-26.666V337.814z"/></g></svg>